# xmcd CD database file
#
# Track frame offsets:
#	150
#	9009
#	18382
#	33284
#	47197
#	63045
#	74935
#	100266
#	111275
#	124710
#	149696
#
# Disc length: 2132 seconds
#
# Revision: 0
# Processed by: cddbd v1.5.1PL0 Copyright (c) Steve Scherf et al.
# Submitted via: CDex 1.51
#
DISCID=9708520b
DTITLE=Kriegsmarine - Kriegsmarine
DYEAR=2005
DGENRE=Jazz
TTITLE0=Anxiety
TTITLE1=Nebula
TTITLE2=Rudiger's Tune
TTITLE3=Morning and Evening
TTITLE4=Opus
TTITLE5=Mark of Cain
TTITLE6=U-100
TTITLE7=Up From the Ashes
TTITLE8=The Age of Rage
TTITLE9=Prinz Eugen
TTITLE10=Bonus Track 1
EXTD=YEAR: 2005
EXTT0=
EXTT1=
EXTT2=
EXTT3=
EXTT4=
EXTT5=
EXTT6=
EXTT7=
EXTT8=
EXTT9=
EXTT10=
PLAYORDER=
